<svg xmlns="http://www.w3.org/2000/svg" xmlns:xlink="http://www.w3.org/1999/xlink" width="40" zoomAndPan="magnify"
  viewBox="0 0 30 30.000001" height="40" preserveAspectRatio="xMidYMid meet" version="1.0">
  <defs>
    <clipPath id="id1">
      <path d="M 0.484375 0 L 29.515625 0 L 29.515625 29.03125 L 0.484375 29.03125 Z M 0.484375 0 "
        clip-rule="nonzero" />
    </clipPath>
  </defs>
  <path fill="#ffffff"
    d="M 27.339844 14.515625 C 27.339844 21.339844 21.824219 26.855469 15 26.855469 C 8.175781 26.855469 2.660156 21.339844 2.660156 14.515625 C 2.660156 7.695312 8.175781 2.175781 15 2.175781 C 21.824219 2.175781 27.339844 7.695312 27.339844 14.515625 Z M 27.339844 14.515625 "
    fill-opacity="1" fill-rule="nonzero" />
  <path fill="#455a64"
    d="M 12.824219 26.855469 L 12.824219 22.863281 C 12.824219 22.644531 12.96875 22.5 13.183594 22.5 C 13.402344 22.5 13.546875 22.644531 13.546875 22.863281 L 13.546875 26.855469 L 15 26.855469 L 15 22.136719 C 15 21.917969 15.144531 21.773438 15.363281 21.773438 C 15.582031 21.773438 15.726562 21.917969 15.726562 22.136719 L 15.726562 26.855469 L 17.175781 26.855469 L 17.175781 22.863281 C 17.175781 22.644531 17.324219 22.5 17.539062 22.5 C 17.757812 22.5 17.902344 22.644531 17.902344 22.863281 L 17.902344 26.855469 L 19.210938 26.855469 C 19.355469 26.636719 19.355469 26.417969 19.355469 26.054688 L 19.355469 23.226562 C 19.355469 21.628906 17.976562 19.453125 16.234375 19.453125 L 14.417969 19.453125 C 12.75 19.453125 11.296875 21.703125 11.296875 23.226562 L 11.296875 26.054688 C 11.296875 26.347656 11.371094 26.636719 11.445312 26.855469 Z M 26.683594 16.257812 C 26.683594 16.257812 25.742188 15.96875 24.945312 15.96875 C 24.945312 15.96875 24.871094 15.96875 24.871094 15.96875 C 24.074219 15.96875 22.765625 16.183594 22.765625 16.183594 C 22.695312 16.183594 22.695312 16.183594 22.695312 16.113281 C 22.695312 16.039062 22.695312 16.039062 22.765625 16.039062 C 22.839844 16.039062 24.21875 15.824219 25.015625 15.824219 C 25.816406 15.824219 26.757812 16.113281 26.832031 16.113281 C 26.902344 16.113281 26.902344 16.183594 26.902344 16.257812 C 26.757812 16.183594 26.757812 16.257812 26.683594 16.257812 Z M 26.46875 16.839844 C 26.46875 16.839844 25.453125 16.546875 24.582031 16.546875 C 23.925781 16.546875 22.402344 16.695312 22.332031 16.695312 C 22.257812 16.695312 22.257812 16.695312 22.257812 16.621094 C 22.257812 16.546875 22.257812 16.546875 22.332031 16.546875 C 22.402344 16.546875 23.925781 16.402344 24.582031 16.402344 C 25.523438 16.402344 26.46875 16.695312 26.46875 16.695312 C 26.539062 16.695312 26.539062 16.765625 26.539062 16.839844 C 26.539062 16.765625 26.539062 16.839844 26.46875 16.839844 Z M 3.242188 16.257812 C 3.167969 16.257812 3.167969 16.257812 3.167969 16.183594 C 3.167969 16.113281 3.167969 16.113281 3.242188 16.039062 C 3.824219 15.894531 4.984375 15.675781 5.636719 15.675781 C 6.21875 15.675781 8.175781 15.824219 8.25 15.824219 C 8.324219 15.824219 8.324219 15.894531 8.324219 15.894531 C 8.324219 15.96875 8.25 15.96875 8.25 15.96875 C 8.25 15.96875 6.289062 15.824219 5.710938 15.824219 C 4.910156 15.96875 3.824219 16.113281 3.242188 16.257812 Z M 3.53125 17.347656 C 3.53125 17.347656 3.460938 17.347656 3.460938 17.273438 C 3.460938 17.203125 3.460938 17.203125 3.460938 17.128906 C 3.53125 17.128906 4.476562 16.546875 5.566406 16.402344 C 6.507812 16.257812 8.46875 16.476562 8.613281 16.476562 C 8.683594 16.476562 8.683594 16.546875 8.683594 16.546875 C 8.683594 16.621094 8.613281 16.621094 8.613281 16.621094 C 8.613281 16.621094 6.582031 16.402344 5.636719 16.546875 C 4.546875 16.765625 3.53125 17.347656 3.53125 17.347656 Z M 3.53125 17.347656 "
    fill-opacity="1" fill-rule="nonzero" />
  <path fill="#455a64"
    d="M 7.886719 14.152344 C 7.886719 10.960938 11.226562 7.984375 15.363281 7.984375 C 19.5 7.984375 22.839844 10.886719 22.839844 14.152344 C 22.839844 17.417969 20.445312 19.597656 15.363281 19.597656 C 10.28125 19.597656 7.886719 17.347656 7.886719 14.152344 Z M 7.886719 14.152344 "
    fill-opacity="1" fill-rule="nonzero" />
  <path fill="#455a64"
    d="M 18.339844 8.925781 C 18.339844 8.925781 19.574219 7.257812 21.824219 7.257812 C 22.695312 8.128906 22.113281 10.742188 21.824219 11.46875 Z M 12.386719 8.925781 C 12.386719 8.925781 11.152344 7.257812 8.902344 7.257812 C 8.03125 8.128906 8.613281 10.742188 8.902344 11.46875 Z M 12.167969 23.152344 C 12.167969 23.152344 10.5 23.152344 10.136719 23.152344 C 9.265625 23.152344 8.46875 22.789062 8.105469 22.066406 C 7.667969 21.265625 7.304688 20.394531 6.21875 19.667969 C 6 19.523438 6.144531 19.378906 6.507812 19.378906 C 6.871094 19.453125 7.523438 19.523438 8.03125 20.175781 C 8.539062 20.832031 9.121094 21.628906 10.066406 21.628906 C 11.007812 21.628906 12.023438 21.628906 12.605469 20.976562 Z M 12.167969 23.152344 "
    fill-opacity="1" fill-rule="nonzero" />
  <g clip-path="url(#id1)">
    <path fill="#00bcd4"
      d="M 15 0 C 7.015625 0 0.484375 6.53125 0.484375 14.515625 C 0.484375 22.5 7.015625 29.03125 15 29.03125 C 22.984375 29.03125 29.515625 22.5 29.515625 14.515625 C 29.515625 6.53125 22.984375 0 15 0 Z M 15 26.128906 C 8.613281 26.128906 3.386719 20.902344 3.386719 14.515625 C 3.386719 8.128906 8.613281 2.902344 15 2.902344 C 21.386719 2.902344 26.613281 8.128906 26.613281 14.515625 C 26.613281 20.902344 21.386719 26.128906 15 26.128906 Z M 15 26.128906 "
      fill-opacity="1" fill-rule="nonzero" />
  </g>
</svg>