<?xml version="1.0" standalone="no"?>
<!DOCTYPE svg PUBLIC "-//W3C//DTD SVG 20010904//EN"
 "http://www.w3.org/TR/2001/REC-SVG-20010904/DTD/svg10.dtd">
<svg version="1.0" xmlns="http://www.w3.org/2000/svg"
 width="1024.000000pt" height="1024.000000pt" viewBox="0 0 1024.000000 1024.000000"
 preserveAspectRatio="xMidYMid meet">
<metadata>
Created by potrace 1.14, written by Peter Selinger 2001-2017
</metadata>
<g transform="translate(0.000000,1024.000000) scale(0.100000,-0.100000)"
fill="#000000" stroke="none">
<path d="M4490 10196 c-19 -5 -38 -15 -42 -20 -4 -6 -22 -11 -40 -11 -25 0
-33 -4 -33 -17 0 -10 -2 -18 -5 -19 -13 -1 -100 26 -100 32 0 3 -12 5 -26 3
-26 -2 -47 -21 -39 -35 5 -7 -39 -29 -57 -29 -6 0 -26 -9 -44 -21 -29 -18 -32
-23 -24 -45 6 -15 6 -24 0 -24 -6 0 -10 5 -10 10 0 6 -13 10 -30 10 -28 0 -30
-2 -30 -38 0 -21 5 -43 11 -49 9 -9 7 -12 -10 -10 -11 1 -21 5 -21 10 0 5 -10
7 -22 5 -19 -2 -23 -9 -23 -38 0 -23 -4 -34 -12 -32 -7 1 -13 -3 -13 -10 0 -9
-3 -9 -11 -1 -12 12 -39 6 -50 -9 -3 -5 -19 -11 -35 -13 -16 -2 -29 -4 -29 -5
0 -1 -19 -3 -43 -5 -23 -1 -48 -8 -55 -14 -8 -6 -23 -9 -35 -6 -24 4 -24 4
-27 -37 -1 -16 3 -28 9 -28 14 0 -33 -44 -56 -53 -26 -9 -22 -28 11 -65 16
-17 33 -42 36 -54 4 -13 16 -33 28 -45 l20 -22 -24 2 c-13 1 -39 -4 -58 -10
-28 -11 -32 -16 -27 -37 3 -14 2 -27 -3 -31 -11 -6 -11 -45 0 -45 3 0 5 -24 3
-53 -2 -29 3 -69 10 -89 6 -21 11 -56 9 -80 -3 -56 -5 -150 -3 -163 4 -23 2
-103 -4 -136 -4 -20 -8 -68 -9 -108 -1 -39 -4 -71 -7 -71 -3 0 -5 -15 -5 -32
1 -18 -2 -45 -6 -60 -4 -16 -4 -28 0 -28 4 0 7 -10 5 -22 -1 -13 -3 -23 -4
-23 -6 0 -3 -108 3 -112 4 -2 4 -10 0 -16 -10 -16 -10 -167 0 -174 4 -3 3 -11
-4 -19 -6 -8 -7 -14 -2 -14 5 0 9 -20 9 -45 0 -25 -4 -45 -9 -45 -5 0 -5 -6 0
-12 6 -7 10 -20 10 -28 0 -24 14 -162 20 -195 2 -16 6 -48 9 -70 2 -22 6 -53
8 -70 3 -16 1 -36 -4 -45 -5 -8 -10 -11 -10 -7 0 4 -6 3 -12 -3 -45 -38 -62
-50 -68 -50 -8 0 -23 -39 -21 -52 1 -5 -3 -8 -7 -8 -11 0 -15 -32 -15 -135 0
-77 7 -170 13 -170 1 0 4 -13 6 -29 2 -16 8 -42 14 -56 6 -15 12 -36 13 -48 0
-11 4 -19 8 -17 3 3 12 -15 18 -38 16 -53 71 -171 83 -175 4 -2 8 -10 8 -18 0
-8 7 -17 15 -20 8 -4 12 -10 9 -15 -3 -5 2 -9 10 -9 9 0 16 -4 16 -9 0 -5 15
-14 33 -20 31 -11 34 -16 50 -89 9 -42 19 -90 22 -107 7 -41 11 -57 18 -75 19
-49 55 -185 51 -192 -3 -4 -1 -8 3 -8 5 0 16 -28 26 -62 10 -35 22 -71 28 -81
5 -10 7 -22 4 -27 -3 -4 -1 -10 5 -12 5 -1 11 -15 12 -30 1 -16 5 -28 9 -28 4
0 10 -17 14 -37 4 -21 16 -60 28 -87 11 -26 20 -54 20 -62 0 -8 3 -14 7 -14 4
0 8 -33 9 -72 1 -40 4 -81 7 -90 3 -10 1 -18 -5 -18 -7 0 -7 -8 -1 -25 6 -15
6 -26 0 -30 -6 -4 -7 -14 -2 -23 4 -9 7 -24 6 -32 -1 -8 -2 -27 -3 -42 0 -16
-4 -27 -8 -26 -5 1 -38 -13 -76 -30 -37 -18 -71 -32 -75 -32 -7 0 -42 -32
-203 -185 -36 -34 -79 -71 -95 -81 -16 -10 -31 -21 -34 -24 -3 -3 -31 -23 -62
-44 -32 -22 -58 -43 -58 -47 0 -5 -11 -11 -25 -15 -14 -3 -25 -10 -25 -15 0
-5 -5 -9 -10 -9 -6 0 -54 -29 -108 -65 -53 -36 -103 -65 -109 -65 -7 0 -13 -4
-13 -10 0 -5 -6 -10 -14 -10 -8 0 -16 -3 -18 -7 -4 -9 -96 -73 -105 -73 -6 0
-125 -56 -208 -98 -53 -27 -91 -33 -195 -31 -36 0 -69 0 -75 0 -5 0 -69 -2
-141 -4 -72 -2 -137 -7 -143 -11 -6 -4 -11 -2 -11 5 0 8 -4 8 -12 2 -7 -6 -20
-10 -28 -11 -31 0 -167 -12 -215 -18 -27 -3 -63 -7 -80 -9 -16 -2 -39 -5 -50
-8 -11 -2 -42 -7 -70 -11 -44 -6 -132 -27 -175 -42 -8 -3 -16 -5 -18 -4 -8 2
-92 -79 -92 -90 0 -6 -3 -10 -8 -10 -17 0 -54 -107 -55 -160 0 -19 12 -209 18
-280 3 -30 7 -86 10 -125 2 -38 5 -70 6 -70 1 0 3 -9 4 -20 2 -11 6 -33 9 -50
14 -63 18 -92 19 -142 1 -29 4 -53 8 -53 3 0 6 -17 7 -39 2 -21 5 -49 7 -62 3
-13 7 -49 10 -79 2 -30 7 -73 11 -95 3 -22 6 -42 7 -45 0 -3 -3 -13 -6 -22
-13 -34 -18 -53 -15 -54 2 -1 -5 -10 -14 -20 -9 -11 -17 -21 -16 -24 0 -18
-16 -60 -23 -60 -5 0 -8 -3 -7 -7 4 -14 -26 -103 -34 -103 -4 0 -7 -3 -7 -7 1
-5 0 -10 -1 -13 -1 -3 -3 -12 -5 -20 -4 -14 -38 -116 -51 -150 -3 -8 -5 -15
-4 -15 1 0 -4 -13 -10 -29 -6 -16 -13 -45 -16 -65 -8 -45 -12 -66 -14 -66 -2
0 -12 -67 -13 -87 -1 -10 -5 -18 -10 -18 -4 0 -6 -4 -3 -9 4 -5 1 -33 -5 -61
-6 -28 -12 -59 -14 -68 -2 -9 -4 -17 -5 -17 -1 0 -3 -13 -4 -30 -5 -52 -17
-118 -33 -185 -15 -66 -20 -120 -25 -267 -2 -46 -7 -83 -11 -83 -5 0 -5 -5 -1
-12 4 -7 9 -37 11 -67 8 -114 16 -144 49 -165 23 -16 23 -18 21 -171 -2 -85 1
-155 5 -155 4 0 3 -11 -2 -24 -5 -13 -6 -26 -3 -29 5 -5 7 -37 17 -197 2 -30
5 -55 6 -55 1 0 3 -17 6 -39 2 -21 9 -45 15 -52 6 -8 9 -20 6 -28 -3 -7 0 -19
6 -25 6 -6 8 -11 4 -11 -4 0 -1 -16 7 -35 8 -19 13 -35 11 -35 -3 0 6 -19 19
-42 13 -24 38 -70 56 -103 50 -90 53 -96 75 -120 11 -12 31 -36 43 -53 13 -17
41 -50 63 -72 21 -22 39 -45 39 -50 0 -6 5 -10 11 -10 6 0 41 -13 79 -30 77
-34 183 -64 268 -76 28 -4 90 -44 68 -44 -10 0 16 -26 29 -28 5 -1 28 -4 50
-9 46 -8 269 -8 435 1 221 12 337 16 610 22 345 7 350 7 350 17 0 4 6 5 13 0
16 -10 47 -11 75 -1 15 5 21 4 17 -2 -4 -6 2 -7 17 -1 13 4 32 7 43 5 29 -5
55 -6 93 -1 18 2 35 0 38 -5 3 -4 14 -3 25 2 13 8 19 7 19 0 0 -6 5 -8 12 -4
16 10 368 11 368 2 0 -4 11 -3 25 2 13 5 26 6 29 2 6 -9 48 -8 63 1 7 4 14 3
18 -3 4 -6 11 -7 17 -4 6 4 58 8 117 10 89 4 203 10 221 13 3 1 79 3 170 6
237 7 295 11 308 19 7 4 12 4 12 -1 0 -9 345 -8 595 2 177 6 216 9 323 20 41
4 90 8 110 9 20 1 43 5 50 9 6 5 12 4 12 -2 0 -6 11 -6 30 -1 18 5 32 5 36 -1
3 -5 11 -6 17 -2 7 4 26 8 42 9 17 1 66 4 110 8 74 7 179 9 201 5 5 -1 11 -1
14 0 16 5 420 2 429 -3 5 -4 12 -2 16 4 4 6 11 7 18 3 6 -3 27 -6 46 -5 20 1
140 4 266 7 127 3 273 7 325 10 52 3 125 7 161 9 36 2 90 7 120 11 30 5 61 9
69 10 16 2 32 8 90 30 35 14 68 24 82 26 73 7 292 112 305 146 3 7 10 13 17
13 6 0 32 20 58 45 27 25 45 45 42 45 -3 0 12 18 34 40 22 21 43 48 47 60 3
11 11 20 16 20 5 0 9 7 9 16 0 8 7 22 15 31 8 8 13 19 10 24 -4 5 -1 9 4 9 6
0 11 9 11 20 0 11 5 20 12 20 6 0 9 3 5 6 -3 4 0 21 7 38 12 28 26 86 32 126
2 17 10 52 19 90 4 14 8 43 10 65 1 22 4 40 5 40 4 0 11 64 13 138 1 42 0 77
-3 77 -7 0 -5 209 3 216 3 4 2 15 -3 25 -7 11 -7 20 0 24 5 3 6 15 1 28 -4 12
-9 63 -10 112 -3 91 -7 148 -11 153 -1 1 -3 10 -4 20 -1 9 -8 42 -14 72 -12
54 -20 118 -26 211 -2 26 -6 51 -9 56 -3 5 -9 32 -12 60 -6 56 -6 53 -39 188
-22 90 -70 260 -96 341 -5 17 -10 39 -10 49 0 24 -38 130 -61 172 -19 33 -53
140 -47 146 2 2 -2 10 -8 18 -6 8 -10 34 -9 59 2 25 4 88 6 140 1 52 6 105 11
118 6 17 5 21 -4 16 -7 -5 -8 -3 -3 7 5 7 10 27 11 44 1 16 3 30 4 30 1 0 3
20 5 45 2 45 13 169 21 245 2 22 6 67 9 100 3 33 8 76 11 95 2 19 6 111 9 204
2 92 6 170 9 173 2 2 0 19 -5 36 -6 18 -12 40 -14 50 -2 9 -18 45 -35 80 -28
58 -78 107 -108 107 -7 0 -12 5 -12 11 0 5 -4 8 -9 4 -5 -3 -12 -1 -16 4 -7
13 -1 13 -328 14 -183 1 -287 6 -287 12 0 6 -3 6 -8 0 -9 -14 -65 -13 -74 0
-5 7 -8 7 -8 0 0 -6 -78 -10 -213 -11 -116 -1 -221 -2 -232 -3 -17 -2 -47 2
-65 9 -3 1 -8 2 -12 1 -5 0 -8 3 -8 7 0 4 -11 9 -23 10 -13 1 -37 8 -52 16
-16 8 -32 13 -37 10 -4 -3 -8 0 -8 5 0 6 -3 10 -7 9 -20 -4 -93 24 -102 40 -6
9 -11 14 -11 9 0 -4 -15 0 -32 10 -18 9 -42 18 -53 20 -11 2 -21 8 -23 13 -2
6 -10 10 -17 10 -12 0 -75 30 -115 55 -8 5 -21 10 -29 12 -8 1 -17 5 -20 10
-3 4 -10 9 -16 10 -5 1 -46 18 -90 38 -44 21 -87 39 -95 40 -8 2 -16 4 -17 5
-2 2 -6 3 -10 4 -5 1 -25 10 -47 19 -21 9 -45 17 -52 17 -8 0 -14 5 -14 12 0
6 -3 9 -6 5 -6 -5 -83 34 -156 80 -21 13 -38 20 -38 16 0 -5 -4 -3 -8 3 -4 6
-34 25 -67 43 -33 18 -62 36 -65 40 -3 3 -26 17 -52 29 -25 13 -56 33 -67 43
-12 11 -21 17 -21 14 0 -11 -91 59 -119 91 l-28 31 3 150 c2 82 6 163 9 179 3
16 8 40 10 54 7 40 11 53 24 85 7 17 15 38 17 48 2 9 6 26 9 37 10 38 15 65
20 95 2 17 13 63 24 103 10 39 17 72 14 72 -3 0 -1 6 6 13 8 10 7 17 -2 27 -9
10 -9 11 1 6 8 -5 12 3 13 26 1 18 3 42 4 53 2 11 6 45 10 75 4 30 14 64 21
75 8 11 14 16 14 12 0 -11 58 30 109 76 41 37 104 144 95 159 -3 4 0 8 7 8 7
0 10 3 7 6 -4 3 -2 20 3 37 6 18 12 43 15 55 3 13 10 40 17 60 7 21 12 65 12
99 0 33 3 59 7 57 4 -3 7 4 7 13 1 10 2 61 4 113 2 52 1 100 -2 105 -6 11 -8
18 -10 40 -1 20 -79 97 -90 90 -5 -2 -14 8 -20 23 -11 27 -10 84 3 172 4 25 8
63 11 85 2 22 6 51 9 65 2 14 7 54 10 90 3 36 8 81 11 100 5 33 17 221 15 248
-2 42 -1 77 4 157 11 190 16 271 20 310 5 69 -28 146 -56 129 -7 -4 -8 -2 -4
4 4 7 2 12 -4 12 -7 0 -10 6 -7 14 3 8 3 17 -1 21 -4 4 -8 14 -8 23 -2 27 -16
62 -24 62 -4 0 -19 42 -35 93 -15 50 -33 98 -38 105 -6 8 -12 22 -14 31 -1 10
-12 39 -23 65 -11 26 -20 51 -20 56 0 4 -7 24 -16 45 l-15 37 -22 -19 c-37
-32 -61 -49 -54 -36 4 6 3 14 -3 18 -5 3 -10 13 -10 21 0 8 -9 24 -20 36 -11
12 -20 28 -20 35 0 7 -4 13 -10 13 -5 0 -15 19 -22 42 -16 53 -187 231 -213
222 -16 -6 -20 -26 -8 -38 11 -10 12 -37 2 -30 -5 3 -9 11 -9 18 0 8 -6 19
-14 25 -8 7 -17 24 -21 38 -3 15 -16 35 -28 46 -12 10 -32 27 -44 37 -20 17
-42 24 -70 21 -16 -1 -17 -35 -3 -62 7 -13 7 -19 0 -19 -5 0 -10 5 -10 10 0 6
-6 10 -14 10 -8 0 -16 4 -18 8 -3 9 -81 65 -130 94 -28 18 -29 17 -39 -6 -11
-22 -33 -25 -49 -7 -12 14 -177 91 -193 91 -10 0 -25 -6 -33 -14 -11 -12 -21
-13 -47 -4 -17 6 -36 15 -41 19 -6 5 -17 9 -25 9 -9 0 -28 6 -43 14 -25 13
-30 12 -54 -6 -14 -12 -29 -17 -32 -12 -7 9 -24 15 -54 17 -10 1 -18 4 -18 7
0 11 -53 10 -66 -1 -10 -8 -22 -6 -46 8 -27 16 -39 17 -68 9z m1060 -956 c0
-5 -5 -10 -11 -10 -5 0 -7 5 -4 10 3 6 8 10 11 10 2 0 4 -4 4 -10z m-43 -25
c0 -8 -4 -12 -9 -9 -5 3 -6 10 -3 15 9 13 12 11 12 -6z m-82 -34 c-9 -8 -36
-10 -30 -2 2 4 11 8 20 8 8 0 13 -3 10 -6z m100 -21 c3 -5 1 -10 -4 -10 -6 0
-11 5 -11 10 0 6 2 10 4 10 3 0 8 -4 11 -10z m-300 -9 c3 -5 2 -12 -3 -15 -5
-3 -9 1 -9 9 0 17 3 19 12 6z m162 -16 c0 -8 -4 -12 -9 -9 -5 3 -6 10 -3 15 9
13 12 11 12 -6z m-479 -20 c-3 -3 -9 2 -12 12 -6 14 -5 15 5 6 7 -7 10 -15 7
-18z m-122 -11 c1 -9 0 -13 -4 -10 -3 4 -7 14 -8 22 -1 9 0 13 4 10 3 -4 7
-14 8 -22z m44 16 c0 -5 -5 -10 -11 -10 -5 0 -7 5 -4 10 3 6 8 10 11 10 2 0 4
-4 4 -10z m-140 -20 c0 -5 -5 -10 -11 -10 -5 0 -7 5 -4 10 3 6 8 10 11 10 2 0
4 -4 4 -10z m334 2 c2 -4 -5 -9 -17 -9 -17 -2 -19 0 -7 7 18 12 18 12 24 2z
m159 -17 c-7 -21 -12 -19 -10 4 0 11 5 18 9 15 4 -3 5 -11 1 -19z m163 -10
c-1 -8 -5 -17 -8 -21 -5 -4 -4 16 1 34 3 9 9 -1 7 -13z m-496 -15 c0 -5 -2
-10 -4 -10 -3 0 -8 5 -11 10 -3 6 -1 10 4 10 6 0 11 -4 11 -10z m280 0 c0 -5
-5 -10 -11 -10 -5 0 -7 5 -4 10 3 6 8 10 11 10 2 0 4 -4 4 -10z m280 0 c0 -5
-2 -10 -4 -10 -3 0 -8 5 -11 10 -3 6 -1 10 4 10 6 0 11 -4 11 -10z m-729 -27
c13 -17 13 -17 -6 -3 -11 8 -22 16 -24 17 -2 2 0 3 6 3 6 0 17 -8 24 -17z
m309 7 c0 -5 -2 -10 -4 -10 -3 0 -8 5 -11 10 -3 6 -1 10 4 10 6 0 11 -4 11
-10z m-165 -12 c5 4 5 1 1 -6 -6 -10 -11 -10 -22 -1 -8 6 -14 14 -14 16 0 3 6
0 13 -6 8 -6 18 -7 22 -3z m209 -6 c3 -5 -1 -9 -9 -9 -8 0 -12 4 -9 9 3 4 7 8
9 8 2 0 6 -4 9 -8z m136 -2 c0 -5 -5 -10 -11 -10 -5 0 -7 5 -4 10 3 6 8 10 11
10 2 0 4 -4 4 -10z m-180 -20 c0 -5 -5 -10 -11 -10 -5 0 -7 5 -4 10 3 6 8 10
11 10 2 0 4 -4 4 -10z m157 -32 c2 -17 0 -19 -7 -8 -5 8 -6 18 -4 22 8 12 10
10 11 -14z m207 14 c3 -5 -1 -9 -9 -9 -8 0 -12 4 -9 9 3 4 7 8 9 8 2 0 6 -4 9
-8z m56 -2 c0 -5 -2 -10 -4 -10 -3 0 -8 5 -11 10 -3 6 -1 10 4 10 6 0 11 -4
11 -10z m-623 -45 c0 -8 -4 -12 -9 -9 -5 3 -6 10 -3 15 9 13 12 11 12 -6z
m203 -15 c0 -5 -2 -10 -4 -10 -3 0 -8 5 -11 10 -3 6 -1 10 4 10 6 0 11 -4 11
-10z m451 -13 c-10 -9 -11 -8 -5 6 3 10 9 15 12 12 3 -3 0 -11 -7 -18z m-617
-5 c3 -5 -1 -9 -9 -9 -8 0 -12 4 -9 9 3 4 7 8 9 8 2 0 6 -4 9 -8z m216 2 c0
-8 -19 -13 -24 -6 -3 5 1 9 9 9 8 0 15 -2 15 -3z m163 -19 c-3 -9 -8 -14 -10
-11 -3 3 -2 9 2 15 9 16 15 13 8 -4z m-583 -5 c8 -5 11 -10 5 -10 -5 0 -17 5
-25 10 -8 5 -10 10 -5 10 6 0 17 -5 25 -10z m165 0 c3 -5 1 -10 -4 -10 -6 0
-11 5 -11 10 0 6 2 10 4 10 3 0 8 -4 11 -10z m205 0 c0 -5 -5 -10 -11 -10 -5
0 -7 5 -4 10 3 6 8 10 11 10 2 0 4 -4 4 -10z m-300 -20 c0 -5 -5 -10 -11 -10
-5 0 -7 5 -4 10 3 6 8 10 11 10 2 0 4 -4 4 -10z m160 0 c0 -5 -5 -10 -11 -10
-5 0 -7 5 -4 10 3 6 8 10 11 10 2 0 4 -4 4 -10z m480 -5 c0 -2 -9 -3 -19 -2
-11 0 -18 5 -15 9 4 6 34 0 34 -7z m-180 -15 c0 -5 -2 -10 -4 -10 -3 0 -8 5
-11 10 -3 6 -1 10 4 10 6 0 11 -4 11 -10z m240 0 c0 -5 -2 -10 -4 -10 -3 0 -8
5 -11 10 -3 6 -1 10 4 10 6 0 11 -4 11 -10z m-787 -15 c-3 -9 -8 -14 -10 -11
-3 3 -2 9 2 15 9 16 15 13 8 -4z m64 -17 c2 -17 0 -19 -7 -8 -5 8 -6 18 -4 22
8 12 10 10 11 -14z m103 18 c0 -3 -4 -8 -10 -11 -5 -3 -10 -1 -10 4 0 6 5 11
10 11 6 0 10 -2 10 -4z m254 -8 c-3 -4 -11 -5 -19 -1 -21 7 -19 12 4 10 11 0
18 -5 15 -9z m186 7 c0 -7 -30 -13 -34 -7 -3 4 4 9 15 9 10 1 19 0 19 -2z
m240 0 c0 -7 -30 -13 -34 -7 -3 4 4 9 15 9 10 1 19 0 19 -2z m-926 -31 c3 -8
2 -12 -4 -9 -6 3 -10 10 -10 16 0 14 7 11 14 -7z m306 6 c0 -5 -2 -10 -4 -10
-3 0 -8 5 -11 10 -3 6 -1 10 4 10 6 0 11 -4 11 -10z m135 1 c3 -5 2 -12 -3
-15 -5 -3 -9 1 -9 9 0 17 3 19 12 6z m185 -1 c0 -5 -5 -10 -11 -10 -5 0 -7 5
-4 10 3 6 8 10 11 10 2 0 4 -4 4 -10z m-125 -9 c3 -5 2 -12 -3 -15 -5 -3 -9 1
-9 9 0 17 3 19 12 6z m242 -6 c0 -8 -4 -12 -9 -9 -5 3 -6 10 -3 15 9 13 12 11
12 -6z m-467 -1 c0 -8 -19 -13 -24 -6 -3 5 1 9 9 9 8 0 15 -2 15 -3z m530 -4
c0 -5 -5 -10 -11 -10 -5 0 -7 5 -4 10 3 6 8 10 11 10 2 0 4 -4 4 -10z m220
-20 c0 -5 -2 -10 -4 -10 -3 0 -8 5 -11 10 -3 6 -1 10 4 10 6 0 11 -4 11 -10z
m-725 -9 c3 -5 2 -12 -3 -15 -5 -3 -9 1 -9 9 0 17 3 19 12 6z m185 -5 c0 -3
-4 -8 -10 -11 -5 -3 -10 -1 -10 4 0 6 5 11 10 11 6 0 10 -2 10 -4z m174 -8
c-3 -4 -11 -5 -19 -1 -21 7 -19 12 4 10 11 0 18 -5 15 -9z m330 4 c3 -5 -1 -9
-9 -9 -8 0 -12 4 -9 9 3 4 7 8 9 8 2 0 6 -4 9 -8z m-628 -22 c0 -12 -4 -16 -9
-11 -5 5 -6 14 -3 20 10 15 12 14 12 -9z m684 16 c0 -2 -8 -10 -17 -17 -16
-13 -17 -12 -4 4 13 16 21 21 21 13z m-1040 -12 c0 -8 -19 -13 -24 -6 -3 5 1
9 9 9 8 0 15 -2 15 -3z m780 -4 c0 -5 -2 -10 -4 -10 -3 0 -8 5 -11 10 -3 6 -1
10 4 10 6 0 11 -4 11 -10z m-767 -35 c-7 -21 -12 -19 -10 4 0 11 5 18 9 15 4
-3 5 -11 1 -19z m204 3 c2 -17 0 -19 -7 -8 -5 8 -6 18 -4 22 8 12 10 10 11
-14z m79 -4 c1 -9 0 -13 -4 -10 -3 4 -7 14 -8 22 -1 9 0 13 4 10 3 -4 7 -14 8
-22z m479 -13 c3 -5 2 -12 -3 -15 -5 -3 -9 1 -9 9 0 17 3 19 12 6z m-295 -6
c0 -7 -30 -13 -34 -7 -3 4 4 9 15 9 10 1 19 0 19 -2z m-546 -34 c-2 -3 -12 3
-22 13 -16 17 -16 18 5 5 12 -7 20 -15 17 -18z m291 9 c-3 -5 -12 -10 -18 -10
-7 0 -6 4 3 10 19 12 23 12 15 0z m-211 -18 c2 -4 -5 -9 -17 -9 -17 -2 -19 0
-7 7 18 12 18 12 24 2z m1140 -8 c3 -8 2 -12 -4 -9 -6 3 -10 10 -10 16 0 14 7
11 14 -7z m-977 -29 c0 -8 -4 -12 -9 -9 -5 3 -6 10 -3 15 9 13 12 11 12 -6z
m-257 1 c0 -3 -4 -8 -10 -11 -5 -3 -10 -1 -10 4 0 6 5 11 10 11 6 0 10 -2 10
-4z m320 -6 c0 -5 -2 -10 -4 -10 -3 0 -8 5 -11 10 -3 6 -1 10 4 10 6 0 11 -4
11 -10z m254 2 c3 -5 -1 -9 -9 -9 -8 0 -12 4 -9 9 3 4 7 8 9 8 2 0 6 -4 9 -8z
m-514 -22 c0 -5 -2 -10 -4 -10 -3 0 -8 5 -11 10 -3 6 -1 10 4 10 6 0 11 -4 11
-10z m797 -9 c0 -11 -5 -18 -9 -15 -4 3 -5 11 -1 19 7 21 12 19 10 -4z m63 5
c-7 -7 -13 -7 -20 0 -6 6 -3 10 10 10 13 0 16 -4 10 -10z m-625 -5 c3 -5 2
-12 -3 -15 -5 -3 -9 1 -9 9 0 17 3 19 12 6z m-191 -9 c3 -5 -1 -9 -9 -9 -8 0
-12 4 -9 9 3 4 7 8 9 8 2 0 6 -4 9 -8z m516 2 c0 -8 -19 -13 -24 -6 -3 5 1 9
9 9 8 0 15 -2 15 -3z m180 -9 c0 -2 -9 -3 -19 -2 -11 0 -18 5 -15 9 4 6 34 0
34 -7z m355 6 c-9 -8 -36 -10 -30 -2 2 4 11 8 20 8 8 0 13 -3 10 -6z m-1250
-21 c-3 -5 -12 -10 -18 -10 -7 0 -6 4 3 10 19 12 23 12 15 0z m72 -9 c0 -11
-5 -18 -9 -15 -4 3 -5 11 -1 19 7 21 12 19 10 -4z m83 9 c0 -5 -5 -10 -11 -10
-5 0 -7 5 -4 10 3 6 8 10 11 10 2 0 4 -4 4 -10z m440 6 c0 -3 -4 -8 -10 -11
-5 -3 -10 -1 -10 4 0 6 5 11 10 11 6 0 10 -2 10 -4z m75 -6 c3 -5 1 -10 -4
-10 -6 0 -11 5 -11 10 0 6 2 10 4 10 3 0 8 -4 11 -10z m442 -9 c0 -11 -5 -18
-9 -15 -4 3 -5 11 -1 19 7 21 12 19 10 -4z m83 9 c0 -5 -5 -10 -11 -10 -5 0
-7 5 -4 10 3 6 8 10 11 10 2 0 4 -4 4 -10z m120 6 c0 -2 -7 -7 -16 -10 -8 -3
-12 -2 -9 4 6 10 25 14 25 6z m-836 -24 c3 -5 -1 -9 -9 -9 -8 0 -12 4 -9 9 3
4 7 8 9 8 2 0 6 -4 9 -8z m56 -2 c0 -5 -2 -10 -4 -10 -3 0 -8 5 -11 10 -3 6
-1 10 4 10 6 0 11 -4 11 -10z m255 1 c3 -5 2 -12 -3 -15 -5 -3 -9 1 -9 9 0 17
3 19 12 6z m185 -1 c0 -5 -2 -10 -4 -10 -3 0 -8 5 -11 10 -3 6 -1 10 4 10 6 0
11 -4 11 -10z m64 2 c3 -5 -1 -9 -9 -9 -8 0 -12 4 -9 9 3 4 7 8 9 8 2 0 6 -4
9 -8z m207 -19 c-12 -20 -14 -14 -5 12 4 9 9 14 11 11 3 -2 0 -13 -6 -23z
m-951 3 c0 -3 -4 -8 -10 -11 -5 -3 -10 -1 -10 4 0 6 5 11 10 11 6 0 10 -2 10
-4z m697 -21 c0 -8 -4 -12 -9 -9 -5 3 -6 10 -3 15 9 13 12 11 12 -6z m-563 -3
c2 -4 -5 -9 -17 -9 -17 -2 -19 0 -7 7 18 12 18 12 24 2z m176 2 c0 -8 -19 -13
-24 -6 -3 5 1 9 9 9 8 0 15 -2 15 -3z m245 -4 c3 -5 1 -10 -4 -10 -6 0 -11 5
-11 10 0 6 2 10 4 10 3 0 8 -4 11 -10z m65 4 c0 -8 -19 -13 -24 -6 -3 5 1 9 9
9 8 0 15 -2 15 -3z m-965 -24 c3 -5 1 -10 -4 -10 -6 0 -11 5 -11 10 0 6 2 10
4 10 3 0 8 -4 11 -10z m205 0 c0 -5 -2 -10 -4 -10 -3 0 -8 5 -11 10 -3 6 -1
10 4 10 6 0 11 -4 11 -10z m640 0 c0 -5 -5 -10 -11 -10 -5 0 -7 5 -4 10 3 6 8
10 11 10 2 0 4 -4 4 -10z m240 0 c0 -5 -5 -10 -11 -10 -5 0 -7 5 -4 10 3 6 8
10 11 10 2 0 4 -4 4 -10z m80 0 c0 -5 -2 -10 -4 -10 -3 0 -8 5 -11 10 -3 6 -1
10 4 10 6 0 11 -4 11 -10z m255 0 c3 -5 1 -10 -4 -10 -6 0 -11 5 -11 10 0 6 2
10 4 10 3 0 8 -4 11 -10z m-100 -9 c3 -5 2 -12 -3 -15 -5 -3 -9 1 -9 9 0 17 3
19 12 6z m-1065 -7 c0 -8 -19 -13 -24 -6 -3 5 1 9 9 9 8 0 15 -2 15 -3z m960
0 c0 -8 -19 -13 -24 -6 -3 5 1 9 9 9 8 0 15 -2 15 -3z m-1010 -24 c0 -5 -5
-10 -11 -10 -5 0 -7 5 -4 10 3 6 8 10 11 10 2 0 4 -4 4 -10z m477 -9 c0 -11
-5 -18 -9 -15 -4 3 -5 11 -1 19 7 21 12 19 10 -4z m63 5 c-7 -7 -13 -7 -20 0
-6 6 -3 10 10 10 13 0 16 -4 10 -10z m420 4 c0 -5 -5 -10 -11 -10 -5 0 -7 5
-4 10 3 6 8 10 11 10 2 0 4 -4 4 -10z m237 -15 c0 -8 -4 -12 -9 -9 -5 3 -6 10
-3 15 9 13 12 11 12 -6z m-937 -5 c0 -5 -5 -10 -11 -10 -5 0 -7 5 -4 10 3 6 8
10 11 10 2 0 4 -4 4 -10z m137 -12 c2 -17 0 -19 -7 -8 -5 8 -6 18 -4 22 8 12
10 10 11 -14z m-363 -30 c-3 -4 -11 -5 -19 -1 -21 7 -19 12 4 10 11 0 18 -5
15 -9z m203 5 c-4 -3 -1 -13 6 -22 11 -14 10 -14 -5 -2 -16 12 -16 31 -1 31 4
0 3 -3 0 -7z m223 3 c0 -3 -4 -8 -10 -11 -5 -3 -10 -1 -10 4 0 6 5 11 10 11 6
0 10 -2 10 -4z m40 -6 c0 -5 -2 -10 -4 -10 -3 0 -8 5 -11 10 -3 6 -1 10 4 10
6 0 11 -4 11 -10z m64 2 c3 -5 -1 -9 -9 -9 -8 0 -12 4 -9 9 3 4 7 8 9 8 2 0 6
-4 9 -8z m430 -4 c-3 -4 -11 -5 -19 -1 -21 7 -19 12 4 10 11 0 18 -5 15 -9z
m203 -10 c2 -17 0 -19 -7 -8 -5 8 -6 18 -4 22 8 12 10 10 11 -14z m-792 -8
c-3 -5 -12 -10 -18 -10 -7 0 -6 4 3 10 19 12 23 12 15 0z m112 -15 c0 -8 -4
-12 -9 -9 -5 3 -6 10 -3 15 9 13 12 11 12 -6z m-627 -1 c0 -8 -19 -13 -24 -6
-3 5 1 9 9 9 8 0 15 -2 15 -3z m50 -4 c0 -5 -5 -10 -11 -10 -5 0 -7 5 -4 10 3
6 8 10 11 10 2 0 4 -4 4 -10z m190 4 c0 -8 -19 -13 -24 -6 -3 5 1 9 9 9 8 0
15 -2 15 -3z m50 -4 c0 -5 -5 -10 -11 -10 -5 0 -7 5 -4 10 3 6 8 10 11 10 2 0
4 -4 4 -10z m734 2 c2 -4 -5 -9 -17 -9 -17 -2 -19 0 -7 7 18 12 18 12 24 2z
m-354 -22 c0 -5 -5 -10 -11 -10 -5 0 -7 5 -4 10 3 6 8 10 11 10 2 0 4 -4 4
-10z m-203 -15 c0 -8 -4 -12 -9 -9 -5 3 -6 10 -3 15 9 13 12 11 12 -6z m63 -5
c0 -5 -2 -10 -4 -10 -3 0 -8 5 -11 10 -3 6 -1 10 4 10 6 0 11 -4 11 -10z m254
2 c3 -5 -1 -9 -9 -9 -8 0 -12 4 -9 9 3 4 7 8 9 8 2 0 6 -4 9 -8z m-514 -22 c0
-5 -2 -10 -4 -10 -3 0 -8 5 -11 10 -3 6 -1 10 4 10 6 0 11 -4 11 -10z m235 -9
c3 -5 2 -12 -3 -15 -5 -3 -9 1 -9 9 0 17 3 19 12 6z m600 0 c3 -5 2 -12 -3
-15 -5 -3 -9 1 -9 9 0 17 3 19 12 6z m-1035 -7 c0 -8 -19 -13 -24 -6 -3 5 1 9
9 9 8 0 15 -2 15 -3z m117 -16 c2 -17 0 -19 -7 -8 -5 8 -6 18 -4 22 8 12 10
10 11 -14z m543 12 c0 -5 -5 -10 -11 -10 -5 0 -7 5 -4 10 3 6 8 10 11 10 2 0
4 -4 4 -10z m100 4 c0 -8 -19 -13 -24 -6 -3 5 1 9 9 9 8 0 15 -2 15 -3z m180
-4 c0 -5 -5 -10 -11 -10 -5 0 -7 5 -4 10 3 6 8 10 11 10 2 0 4 -4 4 -10z m214
2 c3 -5 -1 -9 -9 -9 -8 0 -12 4 -9 9 3 4 7 8 9 8 2 0 6 -4 9 -8z m-1317 -27
c0 -8 -4 -12 -9 -9 -5 3 -6 10 -3 15 9 13 12 11 12 -6z m878 5 c3 -5 1 -10 -4
-10 -6 0 -11 5 -11 10 0 6 2 10 4 10 3 0 8 -4 11 -10z m639 -6 c3 -8 2 -12 -4
-9 -6 3 -10 10 -10 16 0 14 7 11 14 -7z m-1159 -3 c3 -5 2 -12 -3 -15 -5 -3
-9 1 -9 9 0 17 3 19 12 6z m722 -8 c-4 -3 -1 -13 6 -22 11 -14 10 -14 -5 -2
-16 12 -16 31 -1 31 4 0 3 -3 0 -7z m103 3 c0 -3 -4 -8 -10 -11 -5 -3 -10 -1
-10 4 0 6 5 11 10 11 6 0 10 -2 10 -4z m56 -8 c3 -4 -1 -5 -10 -4 -8 1 -18 5
-22 8 -3 4 1 5 10 4 8 -1 18 -5 22 -8z m-419 -13 c0 -8 -4 -12 -9 -9 -5 3 -6
10 -3 15 9 13 12 11 12 -6z m-692 -5 c-3 -5 -12 -10 -18 -10 -7 0 -6 4 3 10
19 12 23 12 15 0z m85 -16 c0 -8 -19 -13 -24 -6 -3 5 1 9 9 9 8 0 15 -2 15 -3z
m50 -4 c0 -5 -5 -10 -11 -10 -5 0 -7 5 -4 10 3 6 8 10 11 10 2 0 4 -4 4 -10z
m520 -5 c0 -2 -9 -3 -19 -2 -11 0 -18 5 -15 9 4 6 34 0 34 -7z m97 0 c0 -8 -4
-12 -9 -9 -5 3 -6 10 -3 15 9 13 12 11 12 -6z m347 7 c3 -5 -1 -9 -9 -9 -8 0
-12 4 -9 9 3 4 7 8 9 8 2 0 6 -4 9 -8z m-909 -22 c3 -5 1 -10 -4 -10 -6 0 -11
5 -11 10 0 6 2 10 4 10 3 0 8 -4 11 -10z m645 6 c0 -3 -4 -8 -10 -11 -5 -3
-10 -1 -10 4 0 6 5 11 10 11 6 0 10 -2 10 -4z m-727 -41 c-7 -21 -12 -19 -10
4 0 11 5 18 9 15 4 -3 5 -11 1 -19z m121 17 c3 -5 -1 -9 -9 -9 -8 0 -12 4 -9
9 3 4 7 8 9 8 2 0 6 -4 9 -8z m721 -1 c3 -5 2 -12 -3 -15 -5 -3 -9 1 -9 9 0
17 3 19 12 6z m-275 -15 c0 -3 -4 -8 -10 -11 -5 -3 -10 -1 -10 4 0 6 5 11 10
11 6 0 10 -2 10 -4z m157 -21 c0 -8 -4 -12 -9 -9 -5 3 -6 10 -3 15 9 13 12 11
12 -6z m-563 -3 c2 -4 -5 -9 -17 -9 -17 -2 -19 0 -7 7 18 12 18 12 24 2z m257
-9 c12 -16 12 -17 -2 -6 -9 7 -20 9 -24 5 -5 -4 -5 -1 -1 6 9 16 11 15 27 -5z
m103 9 c3 -5 -1 -9 -9 -9 -8 0 -12 4 -9 9 3 4 7 8 9 8 2 0 6 -4 9 -8z m-414
-22 c0 -5 -5 -10 -11 -10 -5 0 -7 5 -4 10 3 6 8 10 11 10 2 0 4 -4 4 -10z
m177 -9 c0 -11 -5 -18 -9 -15 -4 3 -5 11 -1 19 7 21 12 19 10 -4z m83 9 c0 -5
-5 -10 -11 -10 -5 0 -7 5 -4 10 3 6 8 10 11 10 2 0 4 -4 4 -10z m195 0 c3 -5
1 -10 -4 -10 -6 0 -11 5 -11 10 0 6 2 10 4 10 3 0 8 -4 11 -10z m-162 -75 c-7
-21 -12 -19 -10 4 0 11 5 18 9 15 4 -3 5 -11 1 -19z m-793 1 c0 -2 -7 -7 -16
-10 -8 -3 -12 -2 -9 4 6 10 25 14 25 6z m171 -13 c13 -16 12 -17 -3 -4 -10 7
-18 15 -18 17 0 8 8 3 21 -13z m669 7 c0 -5 -2 -10 -4 -10 -3 0 -8 5 -11 10
-3 6 -1 10 4 10 6 0 11 -4 11 -10z m-86 -18 c3 -5 -1 -9 -9 -9 -8 0 -12 4 -9
9 3 4 7 8 9 8 2 0 6 -4 9 -8z m136 2 c0 -8 -19 -13 -24 -6 -3 5 1 9 9 9 8 0
15 -2 15 -3z m-50 -24 c0 -5 -5 -10 -11 -10 -5 0 -7 5 -4 10 3 6 8 10 11 10 2
0 4 -4 4 -10z m20 -60 c0 -5 -2 -10 -4 -10 -3 0 -8 5 -11 10 -3 6 -1 10 4 10
6 0 11 -4 11 -10z m-5 -39 c3 -5 2 -12 -3 -15 -5 -3 -9 1 -9 9 0 17 3 19 12 6z
m130 -261 c-3 -5 -12 -10 -18 -10 -7 0 -6 4 3 10 19 12 23 12 15 0z m-487 -65
c-3 -3 -9 2 -12 12 -6 14 -5 15 5 6 7 -7 10 -15 7 -18z m-447 -62 c13 -16 12
-17 -3 -4 -10 7 -18 15 -18 17 0 8 8 3 21 -13z m144 -5 c5 4 5 1 1 -6 -6 -10
-11 -10 -22 -1 -8 6 -14 14 -14 16 0 3 6 0 13 -6 8 -6 18 -7 22 -3z m38 -33
c4 -8 3 -16 -1 -19 -4 -3 -9 4 -9 15 -2 23 3 25 10 4z m1027 -35 c0 -5 -2 -10
-4 -10 -3 0 -8 5 -11 10 -3 6 -1 10 4 10 6 0 11 -4 11 -10z m-1020 -34 c0 -3
-4 -8 -10 -11 -5 -3 -10 -1 -10 4 0 6 5 11 10 11 6 0 10 -2 10 -4z m-145 -54
c-3 -3 -11 0 -18 7 -9 10 -8 11 6 5 10 -3 15 -9 12 -12z m58 3 c4 -8 3 -16 -1
-19 -4 -3 -9 4 -9 15 -2 23 3 25 10 4z m677 11 c0 -2 -8 -10 -17 -17 -16 -13
-17 -12 -4 4 13 16 21 21 21 13z m-960 -22 c0 -8 -19 -13 -24 -6 -3 5 1 9 9 9
8 0 15 -2 15 -3z m370 0 c0 -8 -19 -13 -24 -6 -3 5 1 9 9 9 8 0 15 -2 15 -3z
m1165 -24 c3 -6 -1 -7 -9 -4 -18 7 -21 14 -7 14 6 0 13 -4 16 -10z m-267 -25
c-3 -3 -9 2 -12 12 -6 14 -5 15 5 6 7 -7 10 -15 7 -18z m-893 -15 c-3 -5 -12
-10 -18 -10 -7 0 -6 4 3 10 19 12 23 12 15 0z m140 0 c3 -6 -1 -7 -9 -4 -18 7
-21 14 -7 14 6 0 13 -4 16 -10z m-61 -18 c3 -5 -1 -9 -9 -9 -8 0 -12 4 -9 9 3
4 7 8 9 8 2 0 6 -4 9 -8z m-44 -22 c0 -5 -5 -10 -11 -10 -5 0 -7 5 -4 10 3 6
8 10 11 10 2 0 4 -4 4 -10z m1140 6 c0 -2 -7 -7 -16 -10 -8 -3 -12 -2 -9 4 6
10 25 14 25 6z m-1200 -21 c0 -7 -30 -13 -34 -7 -3 4 4 9 15 9 10 1 19 0 19
-2z m1054 -3 c3 -5 -1 -9 -9 -9 -8 0 -12 4 -9 9 3 4 7 8 9 8 2 0 6 -4 9 -8z
m-340 -28 c3 -8 2 -12 -4 -9 -6 3 -10 10 -10 16 0 14 7 11 14 -7z m-803 -27
c-10 -9 -11 -8 -5 6 3 10 9 15 12 12 3 -3 0 -11 -7 -18z m1204 13 c3 -5 1 -10
-4 -10 -6 0 -11 5 -11 10 0 6 2 10 4 10 3 0 8 -4 11 -10z m-1158 -25 c0 -8 -4
-12 -9 -9 -5 3 -6 10 -3 15 9 13 12 11 12 -6z m1004 -32 c13 -16 12 -17 -3 -4
-10 7 -18 15 -18 17 0 8 8 3 21 -13z m-1661 -3 c0 -5 -5 -10 -11 -10 -5 0 -7
5 -4 10 3 6 8 10 11 10 2 0 4 -4 4 -10z m618 -65 c-3 -3 -9 2 -12 12 -6 14 -5
15 5 6 7 -7 10 -15 7 -18z m77 -64 c3 -5 2 -12 -3 -15 -5 -3 -9 1 -9 9 0 17 3
19 12 6z m45 -11 c0 -5 -2 -10 -4 -10 -3 0 -8 5 -11 10 -3 6 -1 10 4 10 6 0
11 -4 11 -10z m235 -28 c-3 -3 -11 0 -18 7 -9 10 -8 11 6 5 10 -3 15 -9 12
-12z m55 -188 c0 -8 -19 -13 -24 -6 -3 5 1 9 9 9 8 0 15 -2 15 -3z m-90 -18
c0 -3 -4 -8 -10 -11 -5 -3 -10 -1 -10 4 0 6 5 11 10 11 6 0 10 -2 10 -4z
m-360 -62 c0 -8 -19 -13 -24 -6 -3 5 1 9 9 9 8 0 15 -2 15 -3z m850 0 c0 -8
-19 -13 -24 -6 -3 5 1 9 9 9 8 0 15 -2 15 -3z m-350 -40 c0 -8 -19 -13 -24 -6
-3 5 1 9 9 9 8 0 15 -2 15 -3z m-140 -198 c0 -3 -4 -8 -10 -11 -5 -3 -10 -1
-10 4 0 6 5 11 10 11 6 0 10 -2 10 -4z m-239 -163 c13 -16 12 -17 -3 -4 -10 7
-18 15 -18 17 0 8 8 3 21 -13z m154 -63 c3 -5 1 -10 -4 -10 -6 0 -11 5 -11 10
0 6 2 10 4 10 3 0 8 -4 11 -10z m-75 -16 c0 -8 -19 -13 -24 -6 -3 5 1 9 9 9 8
0 15 -2 15 -3z m1060 -28 c0 -2 -8 -10 -17 -17 -16 -13 -17 -12 -4 4 13 16 21
21 21 13z m-915 -56 c-3 -5 -12 -10 -18 -10 -7 0 -6 4 3 10 19 12 23 12 15 0z
m-69 -76 c1 -9 0 -13 -4 -10 -3 4 -7 14 -8 22 -1 9 0 13 4 10 3 -4 7 -14 8
-22z m874 0 c0 -8 -19 -13 -24 -6 -3 5 1 9 9 9 8 0 15 -2 15 -3z m-730 -84 c0
-5 -2 -10 -4 -10 -3 0 -8 5 -11 10 -3 6 -1 10 4 10 6 0 11 -4 11 -10z m96 -2
c3 -4 -1 -5 -10 -4 -8 1 -18 5 -22 8 -3 4 1 5 10 4 8 -1 18 -5 22 -8z m-96
-38 c0 -5 -5 -10 -11 -10 -5 0 -7 5 -4 10 3 6 8 10 11 10 2 0 4 -4 4 -10z m34
-62 c-3 -4 -11 -5 -19 -1 -21 7 -19 12 4 10 11 0 18 -5 15 -9z m582 -73 c-1
-8 -5 -17 -8 -21 -5 -4 -4 16 1 34 3 9 9 -1 7 -13z m-161 -94 c3 -5 2 -12 -3
-15 -5 -3 -9 1 -9 9 0 17 3 19 12 6z m-30 -91 c3 -6 -1 -7 -9 -4 -18 7 -21 14
-7 14 6 0 13 -4 16 -10z m239 -358 c3 -5 -1 -9 -9 -9 -8 0 -12 4 -9 9 3 4 7 8
9 8 2 0 6 -4 9 -8z m554 -107 c-3 -3 -9 2 -12 12 -6 14 -5 15 5 6 7 -7 10 -15
7 -18z m-120 -20 c-3 -3 -9 2 -12 12 -6 14 -5 15 5 6 7 -7 10 -15 7 -18z
m-718 -39 c-7 -7 -13 -7 -20 0 -6 6 -3 10 10 10 13 0 16 -4 10 -10z m300 10
c0 -2 -7 -7 -16 -10 -8 -3 -12 -2 -9 4 6 10 25 14 25 6z m418 -31 c-3 -3 -9 2
-12 12 -6 14 -5 15 5 6 7 -7 10 -15 7 -18z m-428 -11 c0 -8 -19 -13 -24 -6 -3
5 1 9 9 9 8 0 15 -2 15 -3z m55 -4 c-3 -5 -12 -10 -18 -10 -7 0 -6 4 3 10 19
12 23 12 15 0z m170 0 c3 -5 1 -10 -4 -10 -6 0 -11 5 -11 10 0 6 2 10 4 10 3
0 8 -4 11 -10z m245 -20 c0 -5 -5 -10 -11 -10 -5 0 -7 5 -4 10 3 6 8 10 11 10
2 0 4 -4 4 -10z m-1380 -20 c0 -5 -5 -10 -11 -10 -5 0 -7 5 -4 10 3 6 8 10 11
10 2 0 4 -4 4 -10z m1280 0 c0 -5 -2 -10 -4 -10 -3 0 -8 5 -11 10 -3 6 -1 10
4 10 6 0 11 -4 11 -10z m-550 -35 c-7 -8 -17 -15 -23 -15 -6 0 -2 7 9 15 25
19 30 19 14 0z m630 -5 c0 -5 -2 -10 -4 -10 -3 0 -8 5 -11 10 -3 6 -1 10 4 10
6 0 11 -4 11 -10z m-1183 -25 c0 -8 -4 -12 -9 -9 -5 3 -6 10 -3 15 9 13 12 11
12 -6z m1227 7 c3 -5 -1 -9 -9 -9 -8 0 -12 4 -9 9 3 4 7 8 9 8 2 0 6 -4 9 -8z
m-1584 -22 c0 -5 -5 -10 -11 -10 -5 0 -7 5 -4 10 3 6 8 10 11 10 2 0 4 -4 4
-10z m220 6 c0 -3 -4 -8 -10 -11 -5 -3 -10 -1 -10 4 0 6 5 11 10 11 6 0 10 -2
10 -4z m80 0 c0 -3 -4 -8 -10 -11 -5 -3 -10 -1 -10 4 0 6 5 11 10 11 6 0 10
-2 10 -4z m739 -30 c-3 -3 -11 5 -18 17 -13 21 -12 21 5 5 10 -10 16 -20 13
-22z m496 15 c3 -5 2 -12 -3 -15 -5 -3 -9 1 -9 9 0 17 3 19 12 6z m-1415 -5
c0 -3 -4 -8 -10 -11 -5 -3 -10 -1 -10 4 0 6 5 11 10 11 6 0 10 -2 10 -4z m40
-6 c0 -5 -2 -10 -4 -10 -3 0 -8 5 -11 10 -3 6 -1 10 4 10 6 0 11 -4 11 -10z
m94 2 c3 -5 -1 -9 -9 -9 -8 0 -12 4 -9 9 3 4 7 8 9 8 2 0 6 -4 9 -8z m81 -1
c3 -5 2 -12 -3 -15 -5 -3 -9 1 -9 9 0 17 3 19 12 6z m1162 -6 c0 -8 -4 -12 -9
-9 -5 3 -6 10 -3 15 9 13 12 11 12 -6z m-397 -15 c0 -5 -5 -10 -11 -10 -5 0
-7 5 -4 10 3 6 8 10 11 10 2 0 4 -4 4 -10z m-883 -15 c0 -8 -4 -12 -9 -9 -5 3
-6 10 -3 15 9 13 12 11 12 -6z m-197 -1 c0 -8 -19 -13 -24 -6 -3 5 1 9 9 9 8
0 15 -2 15 -3z m116 -6 c3 -4 -1 -5 -10 -4 -8 1 -18 5 -22 8 -3 4 1 5 10 4 8
-1 18 -5 22 -8z m159 3 c-9 -8 -36 -10 -30 -2 2 4 11 8 20 8 8 0 13 -3 10 -6z
m696 -14 c-10 -9 -11 -8 -5 6 3 10 9 15 12 12 3 -3 0 -11 -7 -18z"/>
</g>
</svg>
